<?xml version="1.0" standalone="no"?>
<!DOCTYPE svg PUBLIC "-//W3C//DTD SVG 20010904//EN"
 "http://www.w3.org/TR/2001/REC-SVG-20010904/DTD/svg10.dtd">
<svg version="1.0" xmlns="http://www.w3.org/2000/svg"
 width="180.000000pt" height="180.000000pt" viewBox="0 0 180.000000 180.000000"
 preserveAspectRatio="xMidYMid meet">
<metadata>
Created by potrace 1.14, written by Peter Selinger 2001-2017
</metadata>
<g transform="translate(0.000000,180.000000) scale(0.100000,-0.100000)"
fill="#000000" stroke="none">
<path d="M288 1683 c-2 -10 -3 -47 -2 -83 2 -36 3 -84 3 -107 1 -42 1 -42 74
-80 139 -72 304 -268 418 -495 24 -48 45 -85 47 -83 12 12 -95 317 -161 458
-53 112 -144 255 -190 299 -45 42 -147 108 -167 108 -10 0 -20 -8 -22 -17z"/>
<path d="M1424 1661 c-105 -70 -151 -125 -241 -291 -56 -103 -155 -348 -178
-440 -2 -8 -11 -37 -19 -65 -8 -27 -14 -50 -13 -52 2 -1 31 54 66 122 125 242
271 409 429 489 43 22 52 31 53 54 4 91 4 199 1 210 -7 21 -37 13 -98 -27z"/>
<path d="M104 1394 c-5 -1 -21 -5 -36 -8 -17 -4 -27 -13 -27 -24 0 -9 -2 -26
-4 -37 -2 -11 -1 -27 4 -36 5 -10 3 -21 -3 -27 -9 -9 -9 -12 1 -12 9 0 10 -4
5 -12 -5 -7 -9 -33 -9 -58 0 -40 2 -44 23 -43 12 0 59 1 103 2 71 1 80 3 69
16 -7 8 -9 15 -4 15 9 0 13 219 4 221 -12 3 -118 5 -126 3z"/>
<path d="M1579 1390 c-6 -29 -3 -70 6 -70 6 0 6 -3 -1 -8 -14 -9 -13 -74 1
-84 6 -5 5 -8 -4 -8 -11 0 -11 -3 0 -17 8 -9 9 -14 4 -11 -9 6 -13 -27 -6 -52
2 -8 81 -6 81 2 0 4 14 3 32 -2 19 -6 36 -6 43 0 7 6 16 5 23 -2 14 -14 14
-15 14 107 0 138 0 138 -18 131 -8 -3 -13 -2 -10 3 3 5 -6 11 -19 14 -14 2
-28 0 -31 -5 -3 -4 -11 -5 -17 -1 -13 9 -96 11 -98 3z"/>
<path d="M289 1358 c-1 -18 -1 -80 0 -164 l1 -71 58 -17 c171 -48 323 -158
434 -316 17 -24 17 -23 1 20 -24 64 -78 164 -132 245 -103 155 -357 368 -362
303z"/>
<path d="M1425 1328 c-55 -38 -173 -149 -220 -208 -57 -71 -156 -246 -184
-326 l-11 -29 18 23 c131 174 239 255 420 313 68 22 72 25 73 53 7 204 6 216
-20 215 -9 0 -43 -19 -76 -41z"/>
<path d="M44 1042 c3 -20 8 -64 11 -97 6 -59 11 -97 20 -165 2 -19 7 -57 10
-85 9 -85 15 -138 20 -175 2 -19 7 -60 10 -90 3 -30 8 -66 10 -80 2 -14 7 -52
10 -85 3 -33 8 -69 10 -80 2 -11 4 -25 4 -30 1 -7 121 -11 369 -10 l367 0 2
169 2 168 -44 94 c-148 316 -386 478 -733 498 l-73 4 5 -36z"/>
<path d="M1635 1072 c-66 -7 -198 -43 -261 -72 -181 -82 -316 -223 -411 -430
l-39 -85 0 -170 1 -170 364 0 c417 -1 373 -13 385 108 4 37 9 76 11 85 1 9 6
51 10 92 4 41 8 77 10 80 1 3 6 37 9 75 4 39 8 86 11 105 3 19 7 55 10 80 3
25 7 61 10 80 9 69 15 116 20 171 l6 56 -53 -1 c-29 0 -66 -2 -83 -4z"/>
</g>
</svg>
